<?xml version="1.0"?>
<svg ng-style="{'width': width, 'height': height}" xmlns="http://www.w3.org/2000/svg" viewBox="0 0 99.77 99.771" preserveAspectRatio="xMidYMid meet">
<g>
	<path fill="{{color_1}}" d="M32.284,79.636l32.747-32.747c7.376-7.376,7.376-19.378-0.001-26.754c-7.375-7.375-19.378-7.376-26.753-0.001L5.53,52.881
		c-7.376,7.376-7.376,19.378,0,26.754C12.906,87.012,24.909,87.012,32.284,79.636z M6.013,76.819
		c-5.367-6.541-4.999-16.242,1.107-22.347l32.746-32.747c6.499-6.499,17.075-6.499,23.573,0c6.5,6.499,6.5,17.074,0,23.574
		L47.394,61.345L26.367,40.317L9.993,56.691C4.294,62.389,2.892,70.603,6.013,76.819z"/>
	<path ng-if="show == 1" fill="{{color_2}}" d="M81.188,48.003c-9.659,0-17.591,7.372-18.491,16.796h36.984C98.781,55.375,90.848,48.003,81.188,48.003z"/>
	<path ng-if="show == 1" fill="{{color_2}}" d="M81.188,85.167c9.66,0,17.594-7.372,18.493-16.796H62.697C63.596,77.795,71.529,85.167,81.188,85.167z"/>
</g>
</svg>
