<?xml version="1.0"?>
<svg ng-style="{'width': width}" xmlns="http://www.w3.org/2000/svg" viewBox="0 0 442 442" preserveAspectRatio="xMidYMid meet">

 <metadata id="metadata7">image/svg+xml</metadata>
 <g>
  <title>Layer 1</title>
  <g id="layer1">
   <g id="g6044">
    <path fill="{{color_1}}" fill-rule="evenodd" stroke-width="1.25" stroke-linecap="square" stroke-miterlimit="4" stroke-dashoffset="0" id="path2255" d="m442,221.000183a221,221 0 1 1 -442,0a221,221 0 1 1 442,0z"/>
    <path fill="{{color_2}}" fill-rule="evenodd" stroke-width="0.553906px" d="m418.98584,155.631927c-29.654541,-3.140533 -70.580078,25.020386 -78.021118,46.955353c4.259644,9.541351 1.842285,19.098114 -2.408447,21.895752c-5.4151,3.504883 -11.147888,3.63208 -10.584473,10.295013c0.177979,9.584808 -1.348999,19.855835 -9.760559,32.843658l-4.056335,-37.966034c3.832153,-12.598541 6.547607,-24.928436 -2.408447,-34.149353c0.458923,-19.096039 1.740051,-38.362183 -8.936646,-57.250381c-11.363098,-20.102509 -29.158264,-46.972092 -60.921112,-61.887299c-59.618378,-27.99559 -186.747986,12.126099 -224.157684,61.24942c38.049194,-78.672775 168.223938,-100.48851 211.98233,-85.598007c8.265869,-21.093246 34.852753,-16.638107 48.752167,-11.097672c-19.055908,-1.491608 -31.683624,3.865173 -32.533142,15.782196l15.502808,7.302109c6.56488,-10.111038 15.598877,-7.062073 21.914001,-4.907562c-6.271545,0.555588 -13.198669,4.296692 -11.332397,12.572525c22.166809,12.156754 33.155151,38.235641 42.962036,53.025009c8.74646,-12.426254 14.235046,-25.588623 37.394348,-34.751999c-4.496399,-33.566498 -39.731079,-53.61441 -82.901367,-70.156799c50.970276,10.398132 95.221069,29.318039 109.711243,85.624451c-35.952515,-1.765717 -43.484131,20.837326 -54.443665,40.527237c13.744934,-16.217361 37.712708,-21.511703 43.035217,-14.764557c-16.226501,2.992661 -30.902893,17.065125 -29.725342,24.808472c18.380249,-13.395752 43.107056,-23.052155 54.950684,-17.124878c-21.402466,1.62384 -42.457764,22.724731 -50.387329,34.149353c39.13092,-22.540771 69.076172,-25.156708 76.37323,-17.376007zm-85.309814,57.35083c0.012451,-0.237946 0,-0.458801 0,-0.703094c0,-2.992401 -0.989441,-5.592987 -2.345093,-6.628998c-0.111328,-0.082001 -0.264038,-0.190125 -0.380249,-0.251099c-0.029236,-0.014557 -0.09729,-0.037018 -0.12677,-0.050201c-0.088806,-0.037476 -0.22583,-0.075714 -0.316895,-0.100433c-0.045715,-0.011261 -0.143921,-0.042267 -0.190186,-0.050232c-0.046387,-0.006836 -0.14325,0.003448 -0.190125,0c-0.031311,-0.001526 -0.095215,0 -0.12677,0c-0.015747,0 -0.047668,-0.000366 -0.063354,0c-0.046997,0.002319 -0.143616,-0.005707 -0.190125,0c-0.030945,0.004578 -0.096069,-0.006042 -0.12677,0c-0.045898,0.010193 -0.144775,0.036804 -0.190186,0.050232c-0.03009,0.009674 -0.096863,0.039124 -0.126709,0.050201c-0.044617,0.0177 -0.146179,0.079651 -0.190186,0.100433c-0.029175,0.014587 -0.097839,0.034332 -0.12677,0.050232c-1.509949,0.870636 -2.598572,3.623718 -2.598572,6.829865c0,3.206177 1.088623,5.909027 2.598572,6.779663c0.086731,0.047729 0.227722,0.115265 0.316956,0.150665c0.029846,0.011078 0.096619,0.040527 0.126709,0.050201c0.04541,0.013428 0.144287,0.04007 0.190186,0.050232c0.030701,0.006042 0.095825,-0.004578 0.12677,0c0.046509,0.005707 0.143127,0.047882 0.190125,0.050201c0.015686,0.000397 0.047607,0 0.063354,0c0.094604,0 0.224121,-0.03653 0.316895,-0.050201c0.046265,-0.007965 0.14447,-0.038971 0.190186,-0.050232c0.091064,-0.024719 0.228088,-0.062958 0.316895,-0.100433c0.02948,-0.013184 0.097534,-0.035645 0.12677,-0.050232c0.072632,-0.038086 0.182739,-0.104248 0.253479,-0.150635c0.028137,-0.019226 0.098938,-0.079956 0.12677,-0.100464c1.244995,-0.951385 2.20459,-3.198944 2.345093,-5.875671z" id="path2259"/>
    <path fill="{{color_2}}" fill-rule="evenodd" stroke-width="0.553906px" d="m306.859009,207.10788c2.009583,5.589874 -0.405334,13.516937 -4.874268,22.529022c12.172729,22.789581 6.226074,34.811493 1.624756,47.632843c9.206909,0.815033 18.413818,-3.17807 27.620667,-10.942657c-4.632935,8.366394 -12.299011,20.990295 -38.181519,21.885345c-10.537659,-7.938812 -8.663696,-15.877625 -11.37323,-23.816437l10.560852,10.299011c12.901001,-13.057709 7.863464,-29.273987 1.624756,-45.701782c5.098755,-6.081085 10.028809,-12.429504 12.997986,-21.885345z" id="path2261"/>
    <path fill="{{color_2}}" fill-rule="evenodd" stroke-width="0.553906px" d="m275.176453,274.695007c-14.625061,-13.03421 -19.76178,-27.947937 -17.059814,-44.414398c3.181824,6.088165 5.666199,13.00528 12.997925,14.161102c-6.807861,-13.731995 5.331055,-28.751343 -8.123718,-43.127014c6.109863,0.777039 11.486328,5.040985 15.43512,16.092163c17.829407,-27.453766 -7.270386,-59.228149 -38.181549,-53.425995c-0.459747,-5.89801 30.044464,-15.286804 51.991852,4.505798c-10.442688,-11.629303 -24.664429,-40.047531 -63.443634,-43.786911c-9.926941,-0.95723 -65.4151,5.369614 -80.592499,20.164047l-20.33551,-13.099686c13.686646,-11.514206 75.029236,-20.981979 96.9133,-21.817169c38.165436,-1.425339 50.010834,19.75885 64.208893,32.792221c17.873718,16.407562 13.510498,31.755219 13.810303,47.632843c-2.714844,27.849091 -24.239502,34.95163 -27.620667,84.322998z" id="path2263"/>
    <path fill="{{color_2}}" fill-rule="evenodd" stroke-width="1px" d="m248.918243,97.949875c-43.43103,-36.946762 -151.091003,5.095428 -173.299469,17.094223c-28.91217,15.620667 -55.63205,40.212372 -71.222534,68.585022c-15.559677,89.451324 29.868225,174.117004 87.484283,214.440216c80.510559,56.346313 182.100983,56.91156 258.421356,-0.05658c48.607727,-36.282471 79.44397,-85.785217 89.119507,-146.352203c3.216309,55.178162 -173.864258,127.033752 -230.336761,103.414368c75.116791,-12.852356 89.560455,-28.791656 100.336761,-40.458405c-51.60144,-4.368408 -111.861023,-30.887085 -95.295593,-90.201233c16.083099,-57.587128 -28.224487,-99.738037 -82.94339,-91.308182c17.639648,-25.421158 58.500244,-42.338318 117.73584,-35.157227z" id="path2268"/>
    <path fill="{{color_1}}" fill-rule="evenodd" stroke-width="0.553906px" d="m21.901031,289.330658c29.654602,3.140533 70.580078,-25.020386 78.021118,-46.955353c-4.259644,-9.541351 -1.842255,-19.098114 2.408447,-21.895752c5.415131,-3.504883 11.147888,-3.63208 10.584534,-10.295044c-0.178009,-9.584778 1.348969,-19.855804 9.760559,-32.843628l4.056335,37.966034c-3.832214,12.598511 -6.547638,24.928436 2.408447,34.149353c-0.458984,19.096039 -1.740112,38.362183 8.936615,57.250366c11.363098,20.102539 29.158234,46.972107 60.921112,61.887299c59.618378,27.995605 186.747955,-12.126099 224.157684,-61.24939c-38.049194,78.67276 -168.223938,100.488464 -211.98233,85.597992c-8.265869,21.093231 -34.852753,16.638092 -48.752136,11.097687c18.221741,-1.321045 29.743988,-4.285706 32.533112,-15.782227l-15.502838,-7.302094c-6.564819,10.111023 -15.500336,6.175598 -21.81546,4.021088c10.416412,-1.453278 12.659332,-4.349976 11.15799,-10.654266c-21.013947,-13.287048 -33.079285,-39.267426 -42.886139,-54.056793c-8.74646,12.426239 -14.235077,25.588623 -37.394379,34.751984c4.49646,33.566498 39.73114,53.61441 82.901428,70.15683c-50.970337,-10.398132 -95.22113,-29.318054 -109.711273,-85.624481c35.952484,1.765717 43.484131,-20.837311 54.443665,-40.527222c-13.744904,16.217346 -37.712708,21.511688 -43.035217,14.764557c16.226532,-2.992676 30.902893,-17.065125 29.725342,-24.808502c-18.38028,13.395752 -43.107086,23.052185 -54.950684,17.124908c21.402466,-1.62384 42.457733,-22.724731 50.387299,-34.149353c-39.13089,22.540771 -69.076111,25.156708 -76.37323,17.376007zm85.309845,-57.35083c-0.012482,0.237946 0,0.458801 0,0.703094c-0.000031,2.992401 0.989441,5.592987 2.345093,6.628967c0.111328,0.082031 0.264069,0.190155 0.38028,0.251099c0.029175,0.014587 0.09729,0.037018 0.12674,0.050232c0.088837,0.037476 0.22583,0.075714 0.316925,0.100433c0.045715,0.011261 0.14389,0.042267 0.190125,0.050232c0.046417,0.006836 0.14328,-0.003479 0.190155,0c0.031342,0.001526 0.095215,0 0.12677,0c0.015747,0 0.047638,0.000366 0.063354,0c0.047028,-0.002319 0.143616,0.005707 0.190155,0c0.030914,-0.004578 0.096039,0.006042 0.12677,0c0.045898,-0.010193 0.144745,-0.036804 0.190125,-0.050232c0.030121,-0.009674 0.096893,-0.039124 0.12677,-0.050201c0.044586,-0.0177 0.146149,-0.079651 0.190125,-0.100464c0.029205,-0.014557 0.09787,-0.034302 0.12677,-0.050201c1.509949,-0.870636 2.598602,-3.623718 2.598602,-6.829865c0.000031,-3.206177 -1.088654,-5.909027 -2.598602,-6.779663c-0.086731,-0.04776 -0.227692,-0.115265 -0.316895,-0.150665c-0.029877,-0.011078 -0.096649,-0.040527 -0.12677,-0.050201c-0.04538,-0.013428 -0.144226,-0.04007 -0.190125,-0.050232c-0.030731,-0.006042 -0.095856,0.004578 -0.12677,0c-0.046539,-0.005707 -0.143127,-0.047913 -0.190155,-0.050232c-0.015717,-0.000366 -0.047607,0 -0.063354,0c-0.094604,0 -0.224121,0.03653 -0.316925,0.050232c-0.046234,0.007965 -0.144409,0.038971 -0.190125,0.050232c-0.091095,0.024719 -0.228088,0.062958 -0.316925,0.100433c-0.029449,0.013184 -0.097565,0.035645 -0.12674,0.050201c-0.072632,0.038116 -0.18277,0.104248 -0.25354,0.150665c-0.028137,0.019226 -0.098907,0.079926 -0.12674,0.100433c-1.244995,0.951416 -2.20459,3.198975 -2.345093,5.875702z" id="path2288"/>
    <path fill="{{color_1}}" fill-rule="evenodd" stroke-width="0.553906px" d="m134.027924,237.854706c-2.009644,-5.589874 0.405273,-13.516937 4.874237,-22.529022c-12.172729,-22.789581 -6.226105,-34.811493 -1.624756,-47.632843c-9.206909,-0.815033 -18.413788,3.17807 -27.620697,10.942657c4.632996,-8.366394 12.299011,-20.990295 38.181549,-21.885345c10.537628,7.938812 8.663696,15.877594 11.37323,23.816406l-10.560852,-10.298981c-12.901001,13.057709 -7.863495,29.273987 -1.624756,45.701782c-5.098755,6.081085 -10.028778,12.429504 -12.997955,21.885345z" id="path2290"/>
    <path fill="{{color_1}}" fill-rule="evenodd" stroke-width="0.553906px" d="m165.710449,170.267578c14.625061,13.03421 19.76181,27.947937 17.059845,44.414398c-3.181854,-6.088165 -5.666199,-13.00528 -12.997986,-14.161102c6.807892,13.731964 -5.331055,28.751343 8.123749,43.127014c-6.109894,-0.777039 -11.486328,-5.040985 -15.43512,-16.092163c-17.829437,27.453766 7.270386,59.228149 38.181549,53.425995c0.459747,5.89801 -30.044464,15.286804 -51.991852,-4.505798c10.442657,11.629303 24.664429,40.047516 63.443634,43.786896c9.926941,0.957245 65.415131,-5.369598 80.592499,-20.164032l20.33551,13.09967c-13.686646,11.514221 -75.029236,20.981995 -96.9133,21.817169c-38.165436,1.425354 -50.010834,-19.75885 -64.208862,-32.792206c-17.873749,-16.407562 -13.510529,-31.755219 -13.810333,-47.632843c2.714844,-27.849091 24.239471,-34.95163 27.620667,-84.322998z" id="path2292"/>
   </g>
  </g>
 </g>
</svg>