<?xml version="1.0"?>

<svg ng-style="{'width': width, 'height': height}" xmlns="http://www.w3.org/2000/svg" viewBox="0 0 52.35 52.35" preserveAspectRatio="xMidYMid meet">
<g>
	<path fill="{{color_1}}" d="M12.264,6.468c1.147,1.01,2.954,1.601,4.653,1.816c1.699,0.215,3.186-0.539,3.856-1.418c0.669-0.879,0.165-1.85-1.02-2.305
		c-1.185-0.455-4.022,0.198-5.097-0.044c-1.573-0.354-0.737-1.555,0-2.25C15.025,1.92,15.29,1.6,14.834,1.415
		C12.85,0.608,8.656,3.293,12.264,6.468z"/>
	<path fill="{{color_2}}" d="M4.683,13.518c-0.78,4.862,1.182,19.726,9.017,15.841c0.981-0.486,1.497-0.945,0.797-1.679
		c-5.62-5.895-7.598-11.098-6.789-19.485C7.863,6.582,4.966,11.748,4.683,13.518z"/>
	<path fill="{{color_5}}" d="M32.805,32.05c-5.095,1.581-6.89,5.279-6.667,8.372c6.675-4.085,7.535-3.375,13.875-3.823
		c-6.604,1.83-11.225,3.7-16.542,7.982c-1.553,1.251-3.313,2.808-4.549,4.051V38.52v-0.567v-3.488
		c1.128-0.482,1.926-2.098,1.982-3.329c-2.74,0.526-4.888,0.288-5.725-0.766c-0.277,0.204-0.414,0.433-0.98,0.64
		c-0.033,0.18-0.051-0.186-0.051,0.553c0,0.739,0.813,2.4,1.982,2.901v3.489v0.567v13.83l2.792-0.331V52.01l0.062,0.056
		c-0.061-1.178,6.933-7.033,8.803-7.729c2.667,2.991,8.073,4.418,13.498-1.752c1.625-1.849,2.9-4.987,6.539-8.265
		C41.23,35.111,37.23,30.678,32.805,32.05z"/>
	<path fill="{{color_3}}" d="M19.313,29.915c2.077-0.289,6.661-1.159,8.51-3.014c5.914-5.936-0.094-13.019-0.31-17.285
		c-0.006-0.121,0.662-7.579-0.088-6.692c-0.398,0.469-0.676,2.326-2.175,3.556c-1.5,1.229-5.441,2.299-6.178,3.811
		c-0.737,1.511-0.121,5.939,0.065,8.368c0.354,4.62-0.601,6.968-2.31,9.502C15.999,29.385,17.235,30.204,19.313,29.915z"/>
	<path fill="{{color_4}}" d="M24.85,4.646c2.195-3.184-0.762-4.176-3.369-4.607c-1.756-0.291-5.241,1.132-5.983,2.885
		c-0.665,1.572,2.785-0.71,5.362,0.84c1.191,0.716,1.335,1.948,1.596,2.349C22.718,6.513,24.269,5.488,24.85,4.646z"/>
	<path fill="{{color_6}}" d="M9.038,6.571c-0.691,3.853-0.246,7.478,1.319,11.599c1.155,3.041,3.856,7.701,5.097,8.11
		c3.422,1.127,1.99-14.476,1.546-15.309c-0.692-1.295-1.473-1.505-2.402-1.721c-1.929-0.448-4.373-1.917-4.634-4.041
		C9.781,3.712,9.924,1.637,9.038,6.571z"/>
</g>
</svg>